<svg width="53" height="25" viewBox="0 0 53 25" fill="none" xmlns="http://www.w3.org/2000/svg">
<path d="M5.86009 14.306C4.99609 14.306 4.22809 14.12 3.55609 13.748C2.89609 13.376 2.38009 12.866 2.00809 12.218C1.64809 11.57 1.46809 10.85 1.46809 10.058C1.46809 9.266 1.67809 8.54 2.09809 7.88C2.51809 7.22 3.08809 6.704 3.80809 6.332C4.54009 5.948 5.33809 5.756 6.20209 5.756C7.25809 5.756 8.15809 6.02 8.90209 6.548C9.64609 7.076 10.2101 7.802 10.5941 8.726C10.9781 9.638 11.1701 10.676 11.1701 11.84C11.1701 13.244 10.9541 14.456 10.5221 15.476C10.1021 16.496 9.50209 17.282 8.72209 17.834C7.94209 18.374 7.04209 18.644 6.02209 18.644C5.14609 18.644 4.36609 18.482 3.68209 18.158C2.99809 17.834 2.44609 17.396 2.02609 16.844C1.61809 16.28 1.37209 15.656 1.28809 14.972H3.79009C3.88609 15.392 4.12609 15.74 4.51009 16.016C4.89409 16.28 5.36209 16.412 5.91409 16.412C6.68209 16.412 7.31209 16.094 7.80409 15.458C8.30809 14.81 8.59009 13.982 8.65009 12.974C8.38609 13.358 7.99009 13.676 7.46209 13.928C6.93409 14.18 6.40009 14.306 5.86009 14.306ZM4.18609 10.058C4.18609 10.634 4.36609 11.102 4.72609 11.462C5.08609 11.822 5.56009 12.002 6.14809 12.002C6.73609 12.002 7.21609 11.822 7.58809 11.462C7.96009 11.09 8.14609 10.622 8.14609 10.058C8.14609 9.47 7.96009 8.996 7.58809 8.636C7.22809 8.276 6.74809 8.096 6.14809 8.096C5.56009 8.096 5.08609 8.276 4.72609 8.636C4.36609 8.996 4.18609 9.47 4.18609 10.058ZM12.6084 10.382C12.5964 9.434 12.7764 8.612 13.1484 7.916C13.5204 7.22 14.0484 6.686 14.7324 6.314C15.4284 5.942 16.2444 5.756 17.1804 5.756C18.0684 5.756 18.8544 5.924 19.5384 6.26C20.2224 6.584 20.7504 7.046 21.1224 7.646C21.5064 8.234 21.6984 8.924 21.6984 9.716C21.6984 11.408 20.6964 12.758 18.6924 13.766L16.6944 14.774C16.2984 14.978 15.9744 15.194 15.7224 15.422C15.4704 15.65 15.3444 15.896 15.3444 16.16H21.6624V18.5H12.6624L12.6444 16.502C12.6444 15.626 12.9324 14.858 13.5084 14.198C14.0844 13.538 14.7444 13.028 15.4884 12.668L17.5404 11.642C18.5004 11.186 18.9804 10.544 18.9804 9.716C18.9804 9.176 18.8184 8.75 18.4944 8.438C18.1824 8.114 17.7444 7.952 17.1804 7.952C16.5684 7.952 16.1004 8.174 15.7764 8.618C15.4524 9.062 15.3024 9.65 15.3264 10.382H12.6084ZM26.4719 13.28L22.1879 5.9H25.0859L27.8399 10.76L30.5939 5.9H33.4919L29.1899 13.28V18.5H26.4719V13.28Z" fill="#010132"/>
<path fill-rule="evenodd" clip-rule="evenodd" d="M41.246 14.2526L41.2462 15.2468C41.2463 16.7662 42.478 17.9979 43.9953 18C45.5148 18 46.7464 16.7684 46.7464 15.2489L46.7464 14.2512L47.7488 14.2509C49.2682 14.2509 50.4999 13.0193 50.4999 11.4998C50.4999 9.98042 49.2681 8.74871 47.7487 8.74869L46.7463 8.74867L46.7463 7.75116C46.7463 6.23173 45.5145 5.00002 43.9951 5C42.4757 4.99998 41.244 6.23164 41.244 7.75107L41.2443 8.74858L40.251 8.74856C38.7315 8.74854 37.4999 9.9802 37.502 11.5017C37.502 13.0211 38.7337 14.2528 40.2531 14.2529L41.246 14.2526Z" fill="#80DAF0"/>
</svg>
