<svg width="24" height="24" viewBox="0 0 24 24" fill="none" xmlns="http://www.w3.org/2000/svg">
<path d="M6.08426 0.856934H1.79855C1.32516 0.856934 0.941406 1.24069 0.941406 1.71408V22.2855C0.941406 22.7589 1.32516 23.1426 1.79855 23.1426H6.08426C6.55765 23.1426 6.94141 22.7589 6.94141 22.2855V1.71408C6.94141 1.24069 6.55765 0.856934 6.08426 0.856934Z" stroke="white" stroke-width="1.71429" stroke-linecap="round" stroke-linejoin="round"/>
<path d="M12.0843 4.28564H7.79855C7.32516 4.28564 6.94141 4.6694 6.94141 5.14279V22.2856C6.94141 22.759 7.32516 23.1428 7.79855 23.1428H12.0843C12.5577 23.1428 12.9414 22.759 12.9414 22.2856V5.14279C12.9414 4.6694 12.5577 4.28564 12.0843 4.28564Z" stroke="white" stroke-width="1.71429" stroke-linecap="round" stroke-linejoin="round"/>
<path d="M17.8216 3.81601L14.4956 4.64836C14.0363 4.76328 13.7572 5.22872 13.8721 5.68795L18.0339 22.318C18.1488 22.7772 18.6143 23.0563 19.0735 22.9414L22.3995 22.109C22.8587 21.9941 23.1378 21.5287 23.0229 21.0694L18.8612 4.43942C18.7462 3.9802 18.2808 3.70109 17.8216 3.81601Z" stroke="white" stroke-width="1.71429" stroke-linecap="round" stroke-linejoin="round"/>
<path d="M0.941406 17.1426H6.94141" stroke="white" stroke-width="1.71429" stroke-linecap="round" stroke-linejoin="round"/>
<path d="M6.94141 15.4282H12.9414" stroke="white" stroke-width="1.71429" stroke-linecap="round" stroke-linejoin="round"/>
<path d="M17.2266 18.8568L22.1637 17.6226" stroke="white" stroke-width="1.71429" stroke-linecap="round" stroke-linejoin="round"/>
</svg>
