<svg width="18" height="19" viewBox="0 0 18 19" fill="none" xmlns="http://www.w3.org/2000/svg">
<mask id="path-1-inside-1_3813_32210" fill="white">
<path fill-rule="evenodd" clip-rule="evenodd" d="M2.50218 9.95658L1.33668 11.1282C-0.443882 12.9182 -0.443882 15.8201 1.34153 17.6101C3.12208 19.4 6.00882 19.4 7.78938 17.6101L8.95392 16.4387L10.1218 17.6121C11.9023 19.402 14.7891 19.402 16.5696 17.617C18.3502 15.827 18.3502 12.9251 16.5696 11.1351L15.3979 9.95723L16.5709 8.77741C18.3514 6.98747 18.3514 4.08552 16.5709 2.29558C14.7903 0.50564 11.9036 0.50564 10.123 2.29558L8.94971 3.47508L7.78327 2.30249C6.00271 0.512551 3.11598 0.512551 1.33542 2.30249C-0.44514 4.09243 -0.44514 6.99438 1.33542 8.78432L2.50218 9.95658Z"/>
</mask>
<path fill-rule="evenodd" clip-rule="evenodd" d="M2.50218 9.95658L1.33668 11.1282C-0.443882 12.9182 -0.443882 15.8201 1.34153 17.6101C3.12208 19.4 6.00882 19.4 7.78938 17.6101L8.95392 16.4387L10.1218 17.6121C11.9023 19.402 14.7891 19.402 16.5696 17.617C18.3502 15.827 18.3502 12.9251 16.5696 11.1351L15.3979 9.95723L16.5709 8.77741C18.3514 6.98747 18.3514 4.08552 16.5709 2.29558C14.7903 0.50564 11.9036 0.50564 10.123 2.29558L8.94971 3.47508L7.78327 2.30249C6.00271 0.512551 3.11598 0.512551 1.33542 2.30249C-0.44514 4.09243 -0.44514 6.99438 1.33542 8.78432L2.50218 9.95658Z" fill="#E8A175"/>
<path d="M1.33668 11.1282L2.04564 11.8335L2.04564 11.8335L1.33668 11.1282ZM2.50218 9.95658L3.21114 10.6618L3.91289 9.95639L3.21095 9.25114L2.50218 9.95658ZM1.34153 17.6101L2.05049 16.9048L2.04953 16.9038L1.34153 17.6101ZM7.78938 17.6101L8.49834 18.3153L8.49854 18.3151L7.78938 17.6101ZM8.95392 16.4387L9.66269 15.7333L8.95353 15.0208L8.24476 15.7337L8.95392 16.4387ZM10.1218 17.6121L10.8307 16.9068L10.8305 16.9066L10.1218 17.6121ZM16.5696 17.617L17.2776 18.3232L17.2786 18.3222L16.5696 17.617ZM16.5696 11.1351L17.2786 10.4299L17.2786 10.4299L16.5696 11.1351ZM15.3979 9.95723L14.6887 9.25218L13.9876 9.95742L14.6889 10.6625L15.3979 9.95723ZM16.5709 8.77741L15.8619 8.07216L15.8617 8.07236L16.5709 8.77741ZM16.5709 2.29558L17.2798 1.59033L17.2798 1.59033L16.5709 2.29558ZM10.123 2.29558L9.41406 1.59033L9.41406 1.59033L10.123 2.29558ZM8.94971 3.47508L8.24075 4.18032L8.94971 4.89302L9.65867 4.18032L8.94971 3.47508ZM7.78327 2.30249L7.07431 3.00774L7.07431 3.00774L7.78327 2.30249ZM1.33542 2.30249L2.04438 3.00774L2.04438 3.00774L1.33542 2.30249ZM1.33542 8.78432L0.626457 9.48957L0.626652 9.48976L1.33542 8.78432ZM2.04564 11.8335L3.21114 10.6618L1.79322 9.25134L0.627713 10.423L2.04564 11.8335ZM2.04953 16.9038C0.653292 15.5041 0.653288 13.2332 2.04564 11.8335L0.627713 10.423C-1.54105 12.6032 -1.54106 16.1362 0.633525 18.3163L2.04953 16.9038ZM7.08042 16.9048C5.6908 18.3017 3.4401 18.3017 2.05049 16.9048L0.632565 18.3153C2.80407 20.4982 6.32684 20.4982 8.49834 18.3153L7.08042 16.9048ZM8.24476 15.7337L7.08022 16.905L8.49854 18.3151L9.66308 17.1438L8.24476 15.7337ZM10.8305 16.9066L9.66269 15.7333L8.24515 17.1442L9.41301 18.3175L10.8305 16.9066ZM15.8616 16.9108C14.472 18.3039 12.2205 18.3039 10.8307 16.9068L9.41281 18.3173C11.5842 20.5001 15.1062 20.5001 17.2776 18.3232L15.8616 16.9108ZM15.8607 11.8404C17.2532 13.2402 17.2532 15.5119 15.8607 16.9117L17.2786 18.3222C19.4472 16.1422 19.4472 12.6099 17.2786 10.4299L15.8607 11.8404ZM14.6889 10.6625L15.8607 11.8404L17.2786 10.4299L16.1069 9.25198L14.6889 10.6625ZM15.8617 8.07236L14.6887 9.25218L16.107 10.6623L17.28 9.48246L15.8617 8.07236ZM15.8619 3.00083C17.2544 4.40067 17.2544 6.67232 15.8619 8.07216L17.2798 9.48265C19.4484 7.30262 19.4484 3.77037 17.2798 1.59033L15.8619 3.00083ZM10.832 3.00083C12.2216 1.60389 14.4723 1.60389 15.8619 3.00083L17.2798 1.59033C15.1083 -0.592611 11.5856 -0.592611 9.41406 1.59033L10.832 3.00083ZM9.65867 4.18032L10.832 3.00083L9.41406 1.59033L8.24075 2.76983L9.65867 4.18032ZM7.07431 3.00774L8.24075 4.18032L9.65867 2.76983L8.49224 1.59725L7.07431 3.00774ZM2.04438 3.00774C3.434 1.6108 5.6847 1.6108 7.07431 3.00774L8.49224 1.59725C6.32073 -0.5857 2.79796 -0.5857 0.626457 1.59725L2.04438 3.00774ZM2.04438 8.07907C0.651873 6.67923 0.651873 4.40758 2.04438 3.00774L0.626457 1.59725C-1.54215 3.77728 -1.54215 7.30953 0.626457 9.48957L2.04438 8.07907ZM3.21095 9.25114L2.04419 8.07888L0.626652 9.48976L1.79341 10.662L3.21095 9.25114Z" fill="#E8A175" mask="url(#path-1-inside-1_3813_32210)"/>
</svg>
