<svg width="24" height="24" viewBox="0 0 24 24" fill="none" xmlns="http://www.w3.org/2000/svg">
<path d="M8.56975 8.57129H1.71261C1.23922 8.57129 0.855469 8.95504 0.855469 9.42843V14.5713C0.855469 15.0447 1.23922 15.4284 1.71261 15.4284H8.56975C9.04314 15.4284 9.4269 15.0447 9.4269 14.5713V9.42843C9.4269 8.95504 9.04314 8.57129 8.56975 8.57129Z" stroke="black" stroke-width="1.71429" stroke-linecap="round" stroke-linejoin="round"/>
<path d="M17.9967 8.57129H14.5681C14.0947 8.57129 13.7109 8.95504 13.7109 9.42843V14.5713C13.7109 15.0447 14.0947 15.4284 14.5681 15.4284H17.9967C18.47 15.4284 18.8538 15.0447 18.8538 14.5713V9.42843C18.8538 8.95504 18.47 8.57129 17.9967 8.57129Z" stroke="black" stroke-width="1.71429" stroke-linecap="round" stroke-linejoin="round"/>
<path d="M23.1406 8.57129V15.4284" stroke="black" stroke-width="1.71429" stroke-linecap="round" stroke-linejoin="round"/>
</svg>
