<svg width="400" height="400" viewBox="0 0 400 400" fill="none" xmlns="http://www.w3.org/2000/svg">
<path fill-rule="evenodd" clip-rule="evenodd" d="M100.2 0H0V100.275V299.757V400.031H100.2C44.8609 400.031 0 355.095 0 299.757C0 247.928 39.3513 205.224 89.8063 200.016C39.3513 194.808 0 152.104 0 100.275C0 44.9358 44.8609 0 100.2 0ZM299.832 0C355.17 0 400.031 44.9358 400.031 100.275C400.031 152.104 360.68 194.808 310.225 200.016C360.68 205.224 400.031 247.928 400.031 299.757C400.031 355.095 355.17 400.031 299.832 400.031H400.031V299.757V100.275V0H299.832Z" fill="#69DCB5"/>
</svg>
