<svg width="342" height="178" viewBox="0 0 342 178" fill="none" xmlns="http://www.w3.org/2000/svg">
<path d="M133.51 177.5H133.509C100.173 177.454 70.4252 162.464 50.4954 139.161C27.1821 119.22 12.1898 89.448 12.166 56.0836L12.166 56.0833L12.166 55.5166V55.5166V55.5165V55.5164V55.5164V55.5163V55.5162V55.5162V55.5161V55.516V55.516V55.5159V55.5159V55.5158V55.5157V55.5157V55.5156V55.5155V55.5155V55.5154V55.5153V55.5153V55.5152V55.5151V55.5151V55.515V55.5149V55.5149V55.5148V55.5147V55.5147V55.5146V55.5146V55.5145V55.5144V55.5144V55.5143V55.5142V55.5142V55.5141V55.514V55.514V55.5139V55.5138V55.5138V55.5137V55.5136V55.5136V55.5135V55.5135V55.5134V55.5133V55.5133V55.5132V55.5131V55.5131V55.513V55.5129V55.5129V55.5128V55.5127V55.5127V55.5126V55.5125V55.5125V55.5124V55.5123V55.5123V55.5122V55.5122V55.5121V55.512V55.512V55.5119V55.5118V55.5118V55.5117V55.5116V55.5116V55.5115V55.5114V55.5114V55.5113V55.5112V55.5112V55.5111V55.511V55.511V55.5109V55.5108V55.5108V55.5107V55.5107V55.5106V55.5105V55.5105V55.5104V55.5103V55.5103V55.5102V55.5101V55.5101V55.51V55.5099V55.5099V55.5098V55.5097V55.5097V55.5096V55.5096V55.5095V55.5094V55.5094V55.5093V55.5092V55.5092V55.5091V55.509V55.509V55.5089V55.5088V55.5088V55.5087V55.5086V55.5086V55.5085V55.5084V55.5084V55.5083V55.5082V55.5082V55.5081V55.5081V55.508V55.5079V55.5079V55.5078V55.5077V55.5077V55.5076V55.5075V55.5075V55.5074V55.5073V55.5073V55.5072V55.5071V55.5071V55.507V55.507V55.5069V55.5068V55.5068V55.5067V55.5066V55.5066V55.5065V55.5064V55.5064V55.5063V55.5062V55.5062V55.5061V55.506V55.506V55.5059V55.5058V55.5058V55.5057V55.5057V55.5056V55.5055V55.5055V55.5054V55.5053V55.5053V55.5052V55.5051V55.5051V55.505V55.5049V55.5049V55.5048V55.5047V55.5047V55.5046V55.5045V55.5045V55.5044V55.5043V55.5043V55.5042V55.5042V55.5041V55.504V55.504V55.5039V55.5038V55.5038V55.5037V55.5036V55.5036V55.5035V55.5034V55.5034V55.5033V55.5033V55.5032V55.5031V55.5031V55.503V55.5029V55.5029V55.5028V55.5027V55.5027V55.5026V55.5025V55.5025V55.5024V55.5023V55.5023V55.5022V55.5021V55.5021V55.502V55.5019V55.5019V55.5018V55.5018V55.5017V55.5016V55.5016V55.5015V55.5014V55.5014V55.5013V55.5012V55.5012V55.5011V55.501V55.501V55.5009V55.5008V55.5008V55.5007V55.5006V55.5006V55.5005V55.5005V55.5004V55.5003V55.5003V55.5002V55.5001L133.51 177.5ZM133.51 177.5L133.647 177.5H133.647M133.51 177.5L133.647 177.5M133.647 177.5C167.03 177.5 196.824 162.514 216.782 139.197C240.142 119.238 255.16 89.4164 255.159 55.9979C255.159 22.5777 240.139 -7.24454 216.776 -27.2024C196.819 -50.5155 167.028 -65.4995 133.649 -65.5C100.26 -65.5005 70.4613 -50.509 50.5031 -27.1842M133.647 177.5L50.5031 -27.1842M50.5031 -27.1842C27.6354 -7.70832 12.1561 21.4534 12.166 55.5L50.5031 -27.1842Z" stroke="#80DAF0" stroke-opacity="0.24"/>
<path d="M133.598 113.5H133.598L133.648 113.5H133.648C149.299 113.5 163.061 105.585 171.212 93.5862C183.23 85.4383 191.16 71.6643 191.159 55.9989C191.159 40.3329 183.229 26.5587 171.209 18.4111C163.059 6.41385 149.297 -1.49974 133.648 -1.5C117.985 -1.50026 104.213 6.42662 96.0647 18.4413C84.0732 26.5896 76.1554 39.8336 76.166 55.5L76.166 56.0378L76.166 56.0381C76.1772 71.6781 84.092 85.4292 96.0861 93.5736C104.228 105.565 117.971 113.478 133.598 113.5Z" stroke="#80DAF0" stroke-opacity="0.4"/>
<path d="M133.64 89.5H133.639L133.631 89.5H133.631C124.59 89.4875 116.858 83.8631 113.739 75.921C105.796 72.8014 100.17 65.0658 100.166 56.0144C100.166 56.0143 100.166 56.0142 100.166 56.0141M133.64 89.5L114.114 36.4723C106.247 39.4694 100.657 47.0856 100.666 56.0139L100.166 56.0141M133.64 89.5H133.648C142.704 89.5002 150.445 83.8715 153.565 75.9232C161.522 72.8082 167.159 65.0627 167.159 55.9993C167.159 46.9357 161.522 39.1901 153.564 36.0753C150.443 28.128 142.703 22.5001 133.648 22.5C124.587 22.4999 116.844 28.1328 113.727 36.0859M133.64 89.5L113.727 36.0859M100.166 56.0141C100.157 46.9506 105.782 39.2088 113.727 36.0859M100.166 56.0141L113.727 36.0859" stroke="#80DAF0" stroke-opacity="0.8"/>
<path fill-rule="evenodd" clip-rule="evenodd" d="M124.764 64.893L124.765 68.105C124.765 73.0139 128.745 76.9932 133.647 77C138.556 77.0001 142.535 73.0209 142.535 68.1119L142.535 64.8884L145.771 64.8876C150.68 64.8877 154.659 60.9084 154.659 55.9995C154.659 51.0906 150.68 47.1112 145.771 47.1112L142.535 47.1111L142.535 43.8884C142.534 38.9794 138.555 35.0001 133.646 35C128.737 34.9999 124.758 38.9792 124.758 43.8881L124.759 47.1108L121.547 47.1107C116.638 47.1107 112.659 51.0899 112.666 56.0055C112.666 60.9144 116.645 64.8938 121.554 64.8939L124.764 64.893Z" fill="#80DAF0"/>
<path d="M52.6698 83.0697C51.1625 83.0697 50.4608 82.6019 49.6812 81.2505L38.3502 62.5388H27.8248V81.2505C27.8248 82.2641 27.0451 83.0697 26.0056 83.0697H17.7412C16.7277 83.0697 16 82.2901 16 81.2505V29.7412C16 28.9616 16.5458 28 17.7412 28H42.4563C54.1772 28 61.5839 35.4067 61.5839 44.8406C61.5839 49.9603 59.063 57.7309 50.4868 60.5637L63.0653 80.7048C63.767 81.7183 63.2212 83.0697 61.8178 83.0697H52.6698ZM49.2134 45.5423C49.2134 41.0463 45.7569 38.3954 41.1049 38.3954H27.8248V53.027H40.975C45.7569 53.027 49.2134 49.9603 49.2134 45.5423Z" fill="#010132"/>
<path fill-rule="evenodd" clip-rule="evenodd" d="M64.2148 54.2392C64.3694 54.2919 64.5342 54.3208 64.7061 54.3208H68.6563V71.7331C68.6563 80.4653 75.2055 83.9997 81.8066 83.9997C86.3026 83.9997 90.5387 82.5964 93.1376 79.9195C93.8393 79.1399 93.9952 78.1003 93.3715 77.0868L90.6167 72.6687C89.915 71.5772 88.6415 71.5772 87.3941 72.3569C86.0687 73.1365 84.7952 73.4484 83.9376 73.4484C82.5342 73.4484 80.0913 72.7987 80.0913 69.0303V54.3208H88.6155C89.5771 54.3208 90.4348 53.4372 90.4348 52.5796V46.5242C90.4348 45.5627 89.5511 44.783 88.6155 44.783H80.0913V34.6475C80.0913 33.6079 79.2857 32.9062 78.428 32.9062H70.3976C69.436 32.9062 68.6563 33.6339 68.6563 34.6475V44.783H66.3123C66.3124 44.8011 66.3124 44.8192 66.3124 44.8374C66.3124 47.5359 65.7408 50.938 64.2148 54.2392Z" fill="#010132"/>
<path d="M19.626 122.084C18.702 121.972 17.96 121.627 17.4 121.048C16.8493 120.46 16.546 119.709 16.49 118.794H17.666C17.7313 119.485 17.9833 120.031 18.422 120.432C18.87 120.833 19.4673 121.034 20.214 121.034C20.9233 121.034 21.488 120.894 21.908 120.614C22.3373 120.325 22.552 119.895 22.552 119.326C22.552 118.962 22.44 118.668 22.216 118.444C22.0013 118.211 21.7307 118.033 21.404 117.912C21.0773 117.781 20.6247 117.637 20.046 117.478C19.346 117.282 18.7813 117.095 18.352 116.918C17.932 116.731 17.5727 116.461 17.274 116.106C16.9753 115.751 16.826 115.28 16.826 114.692C16.826 113.992 17.078 113.409 17.582 112.942C18.0953 112.475 18.7767 112.2 19.626 112.116V110.59H20.676V112.116C21.516 112.209 22.1973 112.513 22.72 113.026C23.2427 113.539 23.5367 114.193 23.602 114.986H22.426C22.37 114.426 22.1367 113.983 21.726 113.656C21.3247 113.329 20.7973 113.166 20.144 113.166C19.4813 113.166 18.9633 113.301 18.59 113.572C18.2167 113.843 18.03 114.216 18.03 114.692C18.03 115.047 18.1373 115.336 18.352 115.56C18.5667 115.775 18.8373 115.943 19.164 116.064C19.4907 116.185 19.934 116.316 20.494 116.456C21.2033 116.643 21.7773 116.825 22.216 117.002C22.6547 117.179 23.028 117.455 23.336 117.828C23.644 118.201 23.798 118.701 23.798 119.326C23.798 120.129 23.5087 120.773 22.93 121.258C22.3607 121.743 21.6093 122.023 20.676 122.098V123.652L19.626 123.638V122.084ZM29.9975 119.55H24.7335V118.472L29.7875 112.2H31.1875V118.472H32.7135V119.55H31.1875V122H29.9975V119.55ZM29.9975 118.472V113.516L26.0075 118.472H29.9975ZM37.0324 118.752C36.3697 118.752 35.777 118.607 35.2544 118.318C34.7317 118.029 34.321 117.632 34.0224 117.128C33.733 116.624 33.5884 116.055 33.5884 115.42C33.5884 114.785 33.7377 114.216 34.0364 113.712C34.3444 113.199 34.7644 112.802 35.2964 112.522C35.8284 112.233 36.4257 112.088 37.0884 112.088C37.8257 112.088 38.4697 112.275 39.0204 112.648C39.571 113.021 39.991 113.549 40.2804 114.23C40.579 114.902 40.7284 115.686 40.7284 116.582C40.7284 117.777 40.5604 118.789 40.2244 119.62C39.8977 120.451 39.445 121.076 38.8664 121.496C38.297 121.916 37.6437 122.126 36.9064 122.126C36.0104 122.126 35.2544 121.888 34.6384 121.412C34.0224 120.927 33.649 120.292 33.5184 119.508H34.7224C34.825 119.984 35.0677 120.362 35.4504 120.642C35.833 120.922 36.3137 121.062 36.8924 121.062C37.4057 121.062 37.8584 120.894 38.2504 120.558C38.6517 120.222 38.969 119.765 39.2024 119.186C39.4357 118.598 39.571 117.945 39.6084 117.226C39.403 117.683 39.0577 118.052 38.5724 118.332C38.0964 118.612 37.583 118.752 37.0324 118.752ZM34.8204 115.434C34.8204 116.087 35.0304 116.624 35.4504 117.044C35.8797 117.464 36.4257 117.674 37.0884 117.674C37.5177 117.674 37.905 117.581 38.2504 117.394C38.5957 117.198 38.8664 116.932 39.0624 116.596C39.2584 116.251 39.3564 115.863 39.3564 115.434C39.3564 115.005 39.2584 114.617 39.0624 114.272C38.8664 113.927 38.5957 113.656 38.2504 113.46C37.905 113.264 37.5177 113.166 37.0884 113.166C36.4257 113.166 35.8797 113.381 35.4504 113.81C35.0304 114.23 34.8204 114.771 34.8204 115.434ZM43.1082 120.698V122H41.8342V120.698H43.1082ZM48.3253 118.752C47.6627 118.752 47.07 118.607 46.5473 118.318C46.0247 118.029 45.614 117.632 45.3153 117.128C45.026 116.624 44.8813 116.055 44.8813 115.42C44.8813 114.785 45.0307 114.216 45.3293 113.712C45.6373 113.199 46.0573 112.802 46.5893 112.522C47.1213 112.233 47.7187 112.088 48.3813 112.088C49.1187 112.088 49.7627 112.275 50.3133 112.648C50.864 113.021 51.284 113.549 51.5733 114.23C51.872 114.902 52.0213 115.686 52.0213 116.582C52.0213 117.777 51.8533 118.789 51.5173 119.62C51.1907 120.451 50.738 121.076 50.1593 121.496C49.59 121.916 48.9367 122.126 48.1993 122.126C47.3033 122.126 46.5473 121.888 45.9313 121.412C45.3153 120.927 44.942 120.292 44.8113 119.508H46.0153C46.118 119.984 46.3607 120.362 46.7433 120.642C47.126 120.922 47.6067 121.062 48.1853 121.062C48.6987 121.062 49.1513 120.894 49.5433 120.558C49.9447 120.222 50.262 119.765 50.4953 119.186C50.7287 118.598 50.864 117.945 50.9013 117.226C50.696 117.683 50.3507 118.052 49.8653 118.332C49.3893 118.612 48.876 118.752 48.3253 118.752ZM46.1133 115.434C46.1133 116.087 46.3233 116.624 46.7433 117.044C47.1727 117.464 47.7187 117.674 48.3813 117.674C48.8107 117.674 49.198 117.581 49.5433 117.394C49.8887 117.198 50.1593 116.932 50.3553 116.596C50.5513 116.251 50.6493 115.863 50.6493 115.434C50.6493 115.005 50.5513 114.617 50.3553 114.272C50.1593 113.927 49.8887 113.656 49.5433 113.46C49.198 113.264 48.8107 113.166 48.3813 113.166C47.7187 113.166 47.1727 113.381 46.7433 113.81C46.3233 114.23 46.1133 114.771 46.1133 115.434ZM54.3266 122C54.336 121.132 54.4386 120.32 54.6346 119.564C54.84 118.799 55.246 117.921 55.8526 116.932L58.1066 113.278H52.3946V112.2H59.4646V113.18L56.7766 117.618C56.2726 118.467 55.9366 119.223 55.7686 119.886C55.61 120.539 55.5306 121.244 55.5306 122H54.3266ZM62.5663 112.2H63.5603L59.1503 122.014H58.1703L62.5663 112.2ZM63.9142 114.944H65.0342V116.302C65.1742 115.863 65.4309 115.509 65.8042 115.238C66.1869 114.967 66.6396 114.832 67.1622 114.832C67.7502 114.832 68.2542 114.963 68.6742 115.224C69.0942 115.485 69.3649 115.854 69.4862 116.33C69.6169 115.901 69.8969 115.546 70.3262 115.266C70.7556 114.977 71.2362 114.832 71.7682 114.832C72.5336 114.832 73.1309 115.075 73.5602 115.56C73.9989 116.045 74.2182 116.713 74.2182 117.562V122H73.0982V117.856C73.0982 117.249 72.9536 116.759 72.6642 116.386C72.3842 116.013 71.9969 115.826 71.5022 115.826C70.9236 115.826 70.4662 116.013 70.1302 116.386C69.7942 116.759 69.6262 117.249 69.6262 117.856V122H68.5062V117.856C68.5062 117.249 68.3616 116.759 68.0722 116.386C67.7922 116.013 67.4096 115.826 66.9242 115.826C66.3362 115.826 65.8742 116.013 65.5382 116.386C65.2022 116.759 65.0342 117.249 65.0342 117.856V122H63.9142V114.944ZM79.2465 122.112C78.5559 122.112 77.9399 121.958 77.3985 121.65C76.8572 121.333 76.4325 120.899 76.1245 120.348C75.8165 119.797 75.6625 119.172 75.6625 118.472C75.6625 117.772 75.8165 117.147 76.1245 116.596C76.4325 116.045 76.8572 115.616 77.3985 115.308C77.9399 114.991 78.5559 114.832 79.2465 114.832C79.9372 114.832 80.5532 114.991 81.0945 115.308C81.6452 115.616 82.0745 116.045 82.3825 116.596C82.6905 117.147 82.8445 117.772 82.8445 118.472C82.8445 119.172 82.6905 119.797 82.3825 120.348C82.0745 120.899 81.6452 121.333 81.0945 121.65C80.5532 121.958 79.9372 122.112 79.2465 122.112ZM76.8105 118.472C76.8105 118.976 76.9132 119.429 77.1185 119.83C77.3239 120.231 77.6085 120.544 77.9725 120.768C78.3459 120.992 78.7705 121.104 79.2465 121.104C79.7225 121.104 80.1472 120.992 80.5205 120.768C80.8939 120.544 81.1832 120.231 81.3885 119.83C81.5939 119.429 81.6965 118.976 81.6965 118.472C81.6965 117.968 81.5939 117.515 81.3885 117.114C81.1832 116.713 80.8939 116.4 80.5205 116.176C80.1472 115.952 79.7225 115.84 79.2465 115.84C78.7705 115.84 78.3459 115.952 77.9725 116.176C77.6085 116.4 77.3239 116.713 77.1185 117.114C76.9132 117.515 76.8105 117.968 76.8105 118.472Z" fill="black"/>
</svg>
