<svg xmlns="http://www.w3.org/2000/svg" width="293" height="293" viewBox="0 0 293 293"><g fill="none" fill-rule="evenodd"><path fill="#FFF" d="M71,0 L71.0006604,0.0416962989 C31.5648896,1.35941705 -4.86876447e-15,33.743521 0,73.5 C4.61469883e-15,111.181876 28.356555,142.240723 64.8947216,146.498402 C28.356555,150.759277 -4.61469883e-15,181.818124 0,219.5 C4.86876447e-15,259.256479 31.5648896,291.640583 71.0006604,292.958304 L71,293 L0,293 L0,0 L71,0 Z"/><path fill="#FFF" d="M293,0 L293.00066,0.0416962989 C253.56489,1.35941705 222,33.743521 222,73.5 C222,111.181876 250.356555,142.240723 286.894722,146.498402 C250.356555,150.759277 222,181.818124 222,219.5 C222,259.256479 253.56489,291.640583 293.00066,292.958304 L293,293 L222,293 L222,0 L293,0 Z" transform="matrix(-1 0 0 1 515 0)"/></g></svg>