<svg width="35" height="14" viewBox="0 0 35 14" fill="none" xmlns="http://www.w3.org/2000/svg">
<path d="M8.34254 13.1575C7.99961 13.1575 7.83998 13.0511 7.6626 12.7436L5.08475 8.48662H2.69019V12.7436C2.69019 12.9742 2.51281 13.1575 2.27631 13.1575H0.396138C0.16555 13.1575 0 12.9801 0 12.7436V1.02504C0 0.847669 0.124163 0.628906 0.396138 0.628906H6.01893C8.68546 0.628906 10.3705 2.31397 10.3705 4.46021C10.3705 5.62497 9.79701 7.39281 7.84589 8.03727L10.7075 12.6195C10.8672 12.85 10.743 13.1575 10.4237 13.1575H8.34254ZM7.55618 4.61984C7.55618 3.59698 6.76981 2.99391 5.71148 2.99391H2.69019V6.32264H5.68191C6.76981 6.32264 7.55618 5.62497 7.55618 4.61984Z" fill="#010132"/>
<path fill-rule="evenodd" clip-rule="evenodd" d="M10.9687 6.59747C11.0039 6.60946 11.0414 6.61604 11.0805 6.61604H11.9792V10.5774C11.9792 12.564 13.4692 13.3681 14.9709 13.3681C15.9938 13.3681 16.9575 13.0488 17.5488 12.4399C17.7084 12.2625 17.7439 12.026 17.602 11.7954L16.9753 10.7903C16.8156 10.5419 16.5259 10.5419 16.2421 10.7193C15.9406 10.8967 15.6509 10.9676 15.4558 10.9676C15.1365 10.9676 14.5807 10.8198 14.5807 9.96252V6.61604H16.52C16.7388 6.61604 16.9339 6.41502 16.9339 6.2199V4.84229C16.9339 4.62353 16.7329 4.44615 16.52 4.44615H14.5807V2.14028C14.5807 1.90378 14.3974 1.74414 14.2023 1.74414H12.3754C12.1566 1.74414 11.9792 1.90969 11.9792 2.14028V4.44615H11.4457C11.4457 4.45041 11.4458 4.45468 11.4458 4.45894C11.4458 5.07276 11.3158 5.84656 10.9687 6.59747Z" fill="#010132"/>
<path fill-rule="evenodd" clip-rule="evenodd" d="M25.3211 9.66713L25.3213 10.6307C25.3214 12.1034 26.5152 13.2972 27.9859 13.2992C29.4585 13.2992 30.6523 12.1055 30.6523 10.6328L30.6523 9.66575L31.623 9.6655C33.0957 9.66552 34.2894 8.47175 34.2894 6.99908C34.2894 5.5264 33.0956 4.33259 31.6229 4.33257L30.6522 4.33255L30.6522 3.36573C30.6521 1.89305 29.4583 0.699243 27.9856 0.699219C26.513 0.699195 25.3192 1.89297 25.3192 3.36564L25.3195 4.33246L24.3558 4.33244C22.8831 4.33242 21.6894 5.52619 21.6914 7.00087C21.6914 8.47355 22.8852 9.66736 24.3579 9.66738L25.3211 9.66713Z" fill="#80DAF0"/>
</svg>
